<svg xmlns="http://www.w3.org/2000/svg" width="64" height="64"><defs><clipPath id="a"><path fill="#2c3842" fill-rule="evenodd" d="m -120.75,-200.375 a 10.875,10.875 0 1 1 -21.75,0 10.875,10.875 0 1 1 21.75,0 z" transform="matrix(1.47126 0 0 1.47126 211.655 1329.167)"/></clipPath></defs><g transform="translate(57 -975.612)"><path fill="#2c3842" fill-rule="evenodd" d="m -120.75,-200.375 c 0,6.0061 -4.8689,10.875 -10.875,10.875 -6.0061,0 -10.875,-4.8689 -10.875,-10.875 0,-6.0061 4.8689,-10.875 10.875,-10.875 6.0061,0 10.875,4.8689 10.875,10.875 z" transform="matrix(1.47126 0 0 1.47126 154.655 1288.417)"/><path fill="#b5bdc4" d="m 14.596667,1040.4755 c 0.198031,-0.036 -3.207508,1.3651 -8.0092661,3.9838 -0.930185,0.5075 -1.2424225,1.4772 -1.2424225,2.5368 0,1.6467 0,3.5719 0,3.5719 l 25.3100496,0 c 0,0 0,-2.7247 0,-3.986 0,-0.9491 -0.877877,-1.8185 -1.70833,-2.2779 -3.585387,-1.9837 -8.021537,-3.9191 -7.956733,-3.932 z" clip-path="url(#a)" transform="translate(-57 -40.75)"/><path fill="#fca" d="m -56.129757,-308.00833 c 0,1.21254 -0.98296,2.1955 -2.195503,2.1955 -1.212543,0 -2.195503,-0.98296 -2.195503,-2.1955 0,-1.21254 0.98296,-2.1955 2.195503,-2.1955 1.212543,0 2.195503,0.98296 2.195503,2.1955 z" transform="matrix(1.5081 0 0 1.5081 48.741 1464.958)"/><path fill="#fca" d="m -39.448714,980.8619 c 2.806299,0 5.923192,2.5728 5.759303,5.7591 l -0.362374,7.0455 c -0.163898,3.1864 -3.391726,5.6679 -5.396929,5.6679 -2.005203,0 -5.233043,-2.4815 -5.396931,-5.6679 l -0.362375,-7.0455 c -0.163896,-3.1863 2.953007,-5.7591 5.759306,-5.7591 z"/><path fill="#fca" d="m -35.9375,-312.02295 c 0,0.56549 -0.28332,1.02391 -0.632812,1.02391 -0.349493,0 -0.632813,-0.45842 -0.632813,-1.02391 0,-0.56549 0.28332,-1.02391 0.632813,-1.02391 0.349492,0 0.632812,0.45842 0.632812,1.02391 z" transform="matrix(2.34259 -.02605 .02605 2.34259 59.769 1722.445)"/><path fill="#fca" d="m -35.9375,-312.02295 c 0,0.56549 -0.28332,1.02391 -0.632812,1.02391 -0.349493,0 -0.632813,-0.45842 -0.632813,-1.02391 0,-0.56549 0.28332,-1.02391 0.632813,-1.02391 0.349492,0 0.632812,0.45842 0.632812,1.02391 z" transform="matrix(2.34259 -.02605 .02605 2.34259 49.043 1722.445)"/><path d="m -34.023255,993.0337 c 2.615439,-3.1519 2.750017,-7.8273 -0.401886,-10.4426 -2.487485,-2.0641 -6.404154,-2.8745 -8.392376,-0.6436 -0.617022,0.6924 -1.486032,1.0539 -2.050292,1.6148 -2.301857,2.2879 -1.81428,6.0527 -0.04671,8.7748 l 0,-3.2498 c 0,-1.3372 1.775146,-1.9155 3.546539,-1.9155 l 3.313123,0 c 2.053702,0 4.154134,1.3556 4.08964,3.7274 z"/></g></svg>